<?xml version="1.0" encoding="UTF-8" standalone="no"?>
<!DOCTYPE svg PUBLIC "-//W3C//DTD SVG 1.1//EN" "http://www.w3.org/Graphics/SVG/1.1/DTD/svg11.dtd">
<svg width="100%" height="100%" viewBox="0 0 598 594" version="1.1" xmlns="http://www.w3.org/2000/svg" xmlns:xlink="http://www.w3.org/1999/xlink" xml:space="preserve" xmlns:serif="http://www.serif.com/" style="fill-rule:evenodd;clip-rule:evenodd;stroke-linejoin:round;stroke-miterlimit:2;">
    <g transform="matrix(1,0,0,1,-69.267,-108.807)">
        <path d="M69.786,221.848L70.139,158.652C166.356,126.956 251.721,109.825 357.603,109.795C418.7,104.724 527.347,118.901 666.369,158.866L666.328,217.238C650.213,212.058 616.447,201.375 616.447,201.375C500.571,168.571 410.012,156.934 359.087,161.096C270.833,161.121 199.68,175.183 119.482,201.199C119.482,201.199 85.52,213.931 69.786,221.848ZM240.294,633.226C143.198,559.116 92.561,481.941 74.804,386.135L89.255,378.34C99.221,372.966 109.409,367.769 119.834,362.797C127.715,445.182 163.345,510.478 240.131,574.307L240.294,633.226ZM635.106,464.907C604.037,531.066 557.434,584.131 482.237,640.315L481.923,582.487C531.117,543.465 560.802,509.658 584.525,464.965L635.106,464.907Z" style="fill:rgb(0,246,255);"/>
        <path d="M360.233,211.365C347.996,219.099 339.111,226.681 336.068,259.49L332.86,692.347L285.371,662.981L284.272,265.624C202.37,276.463 131.704,303.459 69.267,337.135L69.267,280.518C145.84,236.615 246.898,214.521 360.233,211.365Z" style="fill:rgb(0,246,255);"/>
        <path d="M384,702.436L386.382,277.408C390.916,244.533 408.461,220.902 451.578,215.44C534.518,224.628 604.087,244.905 666.369,265.306L666.369,320.07C607.505,299.757 545.683,275.655 453.978,265.7C442.365,267.06 436.027,273.146 434.774,283.785L435.179,367.301L662.809,369.081C659.416,391.374 655.172,412.044 651.701,418.889L435.021,419.137L436.392,670.873L384,702.436Z" style="fill:rgb(0,246,255);"/>
    </g>
</svg>
